<svg width="20" height="20" viewBox="0 0 20 20" fill="none" xmlns="http://www.w3.org/2000/svg">
<path d="M9.99972 1.93548C10.5342 1.93548 10.9675 1.50221 10.9675 0.967742C10.9675 0.433273 10.5342 0 9.99972 0C9.46525 0 9.03198 0.433273 9.03198 0.967742C9.03198 1.50221 9.46525 1.93548 9.99972 1.93548Z" fill="#383A39"/>
<path d="M9.99972 20.0001C10.5342 20.0001 10.9675 19.5668 10.9675 19.0323C10.9675 18.4978 10.5342 18.0646 9.99972 18.0646C9.46525 18.0646 9.03198 18.4978 9.03198 19.0323C9.03198 19.5668 9.46525 20.0001 9.99972 20.0001Z" fill="#ECEEEE"/>
<path d="M5.4841 3.12909C6.01857 3.12909 6.45184 2.69581 6.45184 2.16134C6.45184 1.62688 6.01857 1.1936 5.4841 1.1936C4.94963 1.1936 4.51636 1.62688 4.51636 2.16134C4.51636 2.69581 4.94963 3.12909 5.4841 3.12909Z" fill="#77807F"/>
<path d="M15.3548 17.3548C15.6128 17.8064 15.4515 18.3871 14.9999 18.6774C14.5483 18.9355 13.9677 18.7742 13.6774 18.3226C13.4193 17.871 13.5806 17.2903 14.0322 17C14.4838 16.7419 15.0967 16.9032 15.3548 17.3548Z" fill="#F2F4F4"/>
<path d="M2.6452 4.64514C3.09682 4.90321 3.25811 5.48385 3.00004 5.96772C2.74198 6.41934 2.16133 6.58063 1.67746 6.32256C1.22585 6.0645 1.06456 5.48385 1.32262 4.99998C1.58069 4.51611 2.19359 4.38708 2.6452 4.64514Z" fill="#9FAAA9"/>
<path d="M18.3227 13.6775C18.7743 13.9355 18.9356 14.5162 18.6775 15.0001C18.4195 15.4517 17.8388 15.613 17.355 15.3549C16.9033 15.0968 16.742 14.5162 17.0001 14.0323C17.2582 13.5807 17.8388 13.4194 18.3227 13.6775Z" fill="#F2F7F7"/>
<path d="M0.967742 10.9677C1.50221 10.9677 1.93548 10.5344 1.93548 9.99997C1.93548 9.4655 1.50221 9.03223 0.967742 9.03223C0.433273 9.03223 0 9.4655 0 9.99997C0 10.5344 0.433273 10.9677 0.967742 10.9677Z" fill="#B2BBBA"/>
<path d="M19.0322 10.9677C19.5667 10.9677 19.9999 10.5344 19.9999 9.99997C19.9999 9.4655 19.5667 9.03223 19.0322 9.03223C18.4977 9.03223 18.0645 9.4655 18.0645 9.99997C18.0645 10.5344 18.4977 10.9677 19.0322 10.9677Z" fill="white"/>
<path d="M1.67763 13.6775C2.12924 13.4194 2.70989 13.5807 3.00021 14.0323C3.25828 14.4839 3.09699 15.0646 2.64537 15.3549C2.19376 15.613 1.61311 15.4517 1.32279 15.0001C1.03247 14.5484 1.22602 13.9678 1.67763 13.6775Z" fill="#C5CCCB"/>
<path d="M17.355 4.64526C17.8066 4.38719 18.3872 4.54848 18.6775 5.00009C18.9356 5.45171 18.7743 6.03235 18.3227 6.32268C17.8711 6.58074 17.2904 6.41945 17.0001 5.96784C16.742 5.51622 16.9033 4.90332 17.355 4.64526Z" fill="black"/>
<path d="M4.64513 17.3548C4.9032 16.9032 5.48384 16.7419 5.96771 17C6.41932 17.2581 6.58061 17.8387 6.32255 18.3226C6.06449 18.7742 5.48384 18.9355 4.99997 18.6774C4.54836 18.3871 4.38707 17.8064 4.64513 17.3548Z" fill="#D9DDDD"/>
<path d="M13.6774 1.67734C13.9354 1.22573 14.5161 1.06444 14.9999 1.3225C15.4515 1.58057 15.6128 2.16121 15.3548 2.64508C15.0967 3.0967 14.5161 3.25799 14.0322 2.99992C13.5806 2.74186 13.4193 2.16121 13.6774 1.67734Z" fill="#111111"/>
</svg>
